# xmcd
#
# Track frame offsets: 
#        150
#        23005
#        43597
#        61921
#        84519
#        103732
#        128489
#        153027
#        179325
#        197910
#        224492
#        244190
#
# Disc length: 3521 seconds
#
# Revision: 0
# Processed by: cddbd v1.5.2PL0 Copyright (c) Steve Scherf et al.
# Submitted via: ExactAudioCopy v0.95b4
#
DISCID=9b0dbf0c
DTITLE=Greg Poulos - Angels From Hazard
DYEAR=2008
DGENRE=Blues
TTITLE0=Midnight Sun 
TTITLE1=Big Legged Woman 
TTITLE2=Satisfied
TTITLE3=Out of Sight 
TTITLE4=When the Tears Finally Come 
TTITLE5=Angels From Hazard 
TTITLE6=Liberty City 
TTITLE7=Queen of Hearts 
TTITLE8=She's Got You 
TTITLE9=Morning Rain 
TTITLE10=Rock This House 
TTITLE11=I Have No Name 
EXTD=
EXTT0=
EXTT1=
EXTT2=
EXTT3=
EXTT4=
EXTT5=
EXTT6=
EXTT7=
EXTT8=
EXTT9=
EXTT10=
EXTT11=
PLAYORDER=
